<?xml version="1.0" encoding="utf-8"?>
<!-- Generator: Adobe Illustrator 26.2.1, SVG Export Plug-In . SVG Version: 6.00 Build 0)  -->
<svg version="1.1" id="Layer_1" xmlns="http://www.w3.org/2000/svg" xmlns:xlink="http://www.w3.org/1999/xlink" x="0px" y="0px"
	 viewBox="0 0 259 138" style="enable-background:new 0 0 259 138;" xml:space="preserve">
<style type="text/css">
	.st0{fill:#E4E7EB;filter:url(#Adobe_OpacityMaskFilter);}
	.st1{mask:url(#mask0_00000114049852306285176520000006293289261257469826_);}
	.st2{fill:none;stroke:#9CD1E5;stroke-miterlimit:10;}
	.st3{fill:url(#SVGID_1_);}
	.st4{fill:url(#SVGID_00000103256976341104954540000005921372483530811314_);}
	.st5{fill:none;stroke:#9CD1E5;stroke-width:2;stroke-miterlimit:10;}
	.st6{fill:url(#SVGID_00000156574712931604817650000009417485823333019026_);}
	.st7{fill:#FFFFFF;stroke:#FFFFFF;stroke-miterlimit:10;}
	.st8{fill:#3AB54B;}
</style>
<g>
	<rect x="108.7" y="22" class="st2" width="36.6" height="8.3"/>
	<rect x="108.7" y="35.1" class="st2" width="36.6" height="8.3"/>
	<rect x="108.7" y="48.6" class="st2" width="36.6" height="8.3"/>
	<rect x="108.7" y="61.4" class="st2" width="36.6" height="8.3"/>
	<rect x="108.7" y="74.9" class="st2" width="36.6" height="8.3"/>
	<rect x="108.7" y="87.8" class="st2" width="36.6" height="8.3"/>
	<linearGradient id="SVGID_1_" gradientUnits="userSpaceOnUse" x1="101.3682" y1="47.3993" x2="147.2763" y2="74.8145">
		<stop  offset="0.5" style="stop-color:#75C1DB"/>
		<stop  offset="0.5" style="stop-color:#38A5CB"/>
	</linearGradient>
	<path class="st3" d="M100.2,6.9v111.7h18.8v-14.4h8v14.4h0.2v-14.4h8v14.4H154V6.9H100.2z M145.4,96.1h-36.6v-8.3h36.6V96.1z
		 M145.4,83.2h-36.6v-8.3h36.6V83.2z M145.4,69.7h-36.6v-8.3h36.6V69.7z M145.4,56.9h-36.6v-8.3h36.6V56.9z M145.4,43.4h-36.6v-8.3
		h36.6V43.4z M145.4,30.3h-36.6V22h36.6V30.3z"/>
	<rect x="119.1" y="104.3" class="st2" width="8" height="14.4"/>
	<rect x="127.3" y="104.3" class="st2" width="8" height="14.4"/>
</g>
<g>
	<rect x="58.7" y="76" class="st2" width="36.6" height="8.3"/>
	<rect x="58.7" y="96.7" class="st2" width="36.6" height="2.7"/>
	<rect x="58.7" y="102" class="st2" width="36.6" height="2.7"/>
	<rect x="58.7" y="107.3" class="st2" width="36.6" height="2.7"/>
	<rect x="58.7" y="112.4" class="st2" width="36.6" height="2.7"/>
	
		<linearGradient id="SVGID_00000037653971230158712060000014512206884259525545_" gradientUnits="userSpaceOnUse" x1="43.9806" y1="69.4029" x2="90.2357" y2="97.6471">
		<stop  offset="0.5" style="stop-color:#75C1DB"/>
		<stop  offset="0.5" style="stop-color:#38A5CB"/>
	</linearGradient>
	<path style="fill:url(#SVGID_00000037653971230158712060000014512206884259525545_);" d="M74.9,42.6v21.1l-25-21.1v76h54.2V67
		L74.9,42.6z M58.7,76h36.6v8.3H58.7V76z M95.3,115.1H58.7v-2.7h36.6V115.1z M95.3,110H58.7v-2.7h36.6V110z M95.3,104.7H58.7V102
		h36.6V104.7z M95.3,99.4H58.7v-2.7h36.6V99.4z M97.6,91.7h-2.3v2.5H58.7v-2.6h-2.8V89h41.7V91.7z"/>
	<polygon class="st2" points="55.9,89 97.6,89 97.6,91.7 95.3,91.7 95.3,94.2 58.7,94.2 58.7,91.6 55.9,91.6 	"/>
</g>
<g>
	<rect x="170.2" y="101.4" class="st2" width="11.2" height="17.2"/>
	<path class="st5" d="M173.3,105.9h5c0,0-0.1-2.5-2.5-2.5S173.3,105.9,173.3,105.9z"/>
	<rect x="183.8" y="89.7" class="st2" width="5.4" height="4.7"/>
	<rect x="189.4" y="89.7" class="st2" width="5.4" height="4.7"/>
	<rect x="183.8" y="94.6" class="st2" width="5.4" height="4.7"/>
	<rect x="189.4" y="94.6" class="st2" width="5.4" height="4.7"/>
	
		<linearGradient id="SVGID_00000150060593707517093790000000365549264418952889_" gradientUnits="userSpaceOnUse" x1="135.8727" y1="73.1033" x2="197.8074" y2="110.3475">
		<stop  offset="0.5" style="stop-color:#75C1DB"/>
		<stop  offset="0.5" style="stop-color:#38A5CB"/>
	</linearGradient>
	<path style="fill:url(#SVGID_00000150060593707517093790000000365549264418952889_);" d="M194.4,73.8l-18.1-14.3l-18.1,14.3
		l-18.1,14.3h8.2v30.5h21.8v-17.2h11.2v17.2H204V88.1h8.5L194.4,73.8z M162.2,99.3h-5.4v-4.7h5.4V99.3z M162.2,94.4h-5.4v-4.7h5.4
		V94.4z M167.7,99.3h-5.4v-4.7h5.4V99.3z M167.7,94.4h-5.4v-4.7h5.4V94.4z M189.2,99.3h-5.4v-4.7h5.4V99.3z M189.2,94.4h-5.4v-4.7
		h5.4V94.4z M194.7,99.3h-5.4v-4.7h5.4V99.3z M194.7,94.4h-5.4v-4.7h5.4V94.4z"/>
	<rect x="156.8" y="89.7" class="st2" width="5.4" height="4.7"/>
	<rect x="162.3" y="89.7" class="st2" width="5.4" height="4.7"/>
	<rect x="156.8" y="94.6" class="st2" width="5.4" height="4.7"/>
	<rect x="162.3" y="94.6" class="st2" width="5.4" height="4.7"/>
</g>
<path class="st7" d="M4.2,125.3c0,0,124.8-29.4,252.1,0.4C261,126.8,150.5,109,4.2,125.3z"/>
<path class="st8" d="M4.2,129.3c0,0,124.8-29.4,252.1,0.4C261,130.7,150.5,113,4.2,129.3z"/>
</svg>
